<svg xmlns="http://www.w3.org/2000/svg" xmlns:xlink="http://www.w3.org/1999/xlink" width="1493.3" height="287.092" viewBox="0 0 1493.3 287.092">
  <defs>
    <clipPath id="clip-path">
      <rect width="1493.3" height="287.092" fill="none"/>
    </clipPath>
  </defs>
  <g id="Symbole_3_1" data-name="Symbole 3 – 1" transform="translate(0)" clip-path="url(#clip-path)">
    <path id="Union_33" data-name="Union 33" d="M29.276,86.2l5.3-15.389-15.1-5.5,2.964-8.143,2.5-7.248-15.1-5.5.07-.193-.265-.1,5.777-15.05L.2,23.544l.07-.193L0,23.249,8.923,0l8.251,3.167L11.4,18.218l15.222,5.541-.071.192.266.1L21.036,39.1l15.223,5.54L33.3,52.782l-2.5,7.253,15.1,5.5-2.945,8.089L37.63,89.079Z" transform="translate(1418.517 232.231) rotate(85)" fill="#fff" opacity="0.05"/>
    <path id="Union_42" data-name="Union 42" d="M29.276,86.2l5.3-15.389-15.1-5.5,2.964-8.143,2.5-7.248-15.1-5.5.07-.193-.265-.1,5.777-15.05L.2,23.544l.07-.193L0,23.249,8.923,0l8.251,3.167L11.4,18.218l15.222,5.541-.071.192.266.1L21.036,39.1l15.223,5.54L33.3,52.782l-2.5,7.253,15.1,5.5-2.945,8.089L37.63,89.079Z" transform="translate(569.517 181.231) rotate(85)" fill="#fff" opacity="0.05"/>
    <path id="Union_46" data-name="Union 46" d="M29.276,86.2l5.3-15.389-15.1-5.5,2.964-8.143,2.5-7.248-15.1-5.5.07-.193-.265-.1,5.777-15.05L.2,23.544l.07-.193L0,23.249,8.923,0l8.251,3.167L11.4,18.218l15.222,5.541-.071.192.266.1L21.036,39.1l15.223,5.54L33.3,52.782l-2.5,7.253,15.1,5.5-2.945,8.089L37.63,89.079Z" transform="translate(1339.025 17.639) rotate(80)" fill="#fff" opacity="0.05"/>
    <path id="Union_40" data-name="Union 40" d="M29.276,86.2l5.3-15.389-15.1-5.5,2.964-8.143,2.5-7.248-15.1-5.5.07-.193-.265-.1,5.777-15.05L.2,23.544l.07-.193L0,23.249,8.923,0l8.251,3.167L11.4,18.218l15.222,5.541-.071.192.266.1L21.036,39.1l15.223,5.54L33.3,52.782l-2.5,7.253,15.1,5.5-2.945,8.089L37.63,89.079Z" transform="translate(641.625 82.361) rotate(-54)" fill="#fff" opacity="0.05"/>
    <path id="Union_38" data-name="Union 38" d="M19.292,56.8l3.491-10.141-9.95-3.621,1.953-5.366L16.431,32.9l-9.95-3.621.046-.127-.174-.067,3.807-9.918L.129,15.515l.046-.127L0,15.32,5.88,0l5.437,2.087L7.51,12l10.031,3.651-.047.127.175.067-3.808,9.918,10.032,3.651-1.952,5.363L20.3,39.561l9.95,3.621L28.3,48.513,24.8,58.7Z" transform="translate(996.375 180.118) rotate(-30)" fill="#fff" opacity="0.05"/>
    <path id="Union_43" data-name="Union 43" d="M27.864,82.044,32.906,67.4l-14.371-5.23,2.821-7.75,2.375-6.9L9.36,42.288l.067-.184-.252-.1,5.5-14.324L.186,22.409l.067-.184L0,22.128,8.493,0l7.853,3.014-5.5,14.325,14.488,5.274-.068.183.253.1-5.5,14.325L34.51,42.491l-2.819,7.746-2.377,6.9,14.371,5.23-2.8,7.7L35.815,84.782Z" transform="translate(188.403 198.01) rotate(52)" fill="#fff" opacity="0.05"/>
    <rect id="Rectangle_344" data-name="Rectangle 344" width="44" height="44" transform="matrix(0.819, -0.574, 0.574, 0.819, 1299.217, 142.755)" fill="#fff" opacity="0.05"/>
    <rect id="Rectangle_369" data-name="Rectangle 369" width="45" height="45" transform="matrix(0.819, -0.574, 0.574, 0.819, 520.345, 77.616)" fill="#fff" opacity="0.05"/>
    <rect id="Rectangle_357" data-name="Rectangle 357" width="46" height="46" transform="translate(938.338 64.33) rotate(14)" fill="#fff" opacity="0.05"/>
    <rect id="Rectangle_398" data-name="Rectangle 398" width="46" height="46" transform="matrix(0.602, 0.799, -0.799, 0.602, 1074.618, 0)" fill="#fff" opacity="0.05"/>
    <rect id="Rectangle_388" data-name="Rectangle 388" width="51" height="51" transform="translate(12.338 16.33) rotate(14)" fill="#fff" opacity="0.05"/>
    <rect id="Rectangle_378" data-name="Rectangle 378" width="46" height="46" transform="matrix(0.978, -0.208, 0.208, 0.978, 322.811, 241.496)" fill="#fff" opacity="0.05"/>
    <rect id="Rectangle_377" data-name="Rectangle 377" width="46" height="46" transform="translate(625.338 231.33) rotate(14)" fill="#fff" opacity="0.05"/>
    <rect id="Rectangle_356" data-name="Rectangle 356" width="21" height="21" transform="matrix(0.819, -0.574, 0.574, 0.819, 1070.058, 148.563)" fill="#fff" opacity="0.05"/>
    <path id="Union_36" data-name="Union 36" d="M6.373,18.411V12.038H0V6.374H6.373V0h5.665V6.374h6.373v5.664H12.038v6.373Z" transform="translate(1260.782 215.479) rotate(-13)" fill="#fff" opacity="0.05"/>
    <path id="Union_44" data-name="Union 44" d="M15.267,44.105V28.838H0V15.269H15.267V0H28.838V15.269H44.105V28.838H28.838V44.105Z" transform="translate(134.694 78.17) rotate(6)" fill="#fff" opacity="0.05"/>
    <path id="Union_41" data-name="Union 41" d="M6.373,18.411V12.038H0V6.374H6.373V0h5.665V6.374h6.373v5.664H12.038v6.373Z" transform="matrix(0.921, 0.391, -0.391, 0.921, 688.945, 145.307)" fill="#fff" opacity="0.05"/>
    <path id="Union_37" data-name="Union 37" d="M10.5,30.328V19.83H0V10.5H10.5V0H19.83V10.5h10.5V19.83H19.83v10.5Z" transform="translate(1140.343 83.159) rotate(2)" fill="#fff" opacity="0.05"/>
    <path id="Union_45" data-name="Union 45" d="M10.5,30.328V19.83H0V10.5H10.5V0H19.83V10.5h10.5V19.83H19.83v10.5Z" transform="translate(373.085 90.81) rotate(-23)" fill="#fff" opacity="0.05"/>
    <path id="Union_39" data-name="Union 39" d="M17.812,51.459V33.646H0V17.815H17.812V0H33.646V17.815H51.458V33.646H33.646V51.459Z" transform="translate(852.491 195.807) rotate(-26)" fill="#fff" opacity="0.05"/>
    <path id="Union_47" data-name="Union 47" d="M17.812,51.459V33.646H0V17.815H17.812V0H33.646V17.815H51.458V33.646H33.646V51.459Z" transform="translate(1424.491 174.807) rotate(-26)" fill="#fff" opacity="0.05"/>
    <g id="Ellipse_20" data-name="Ellipse 20" transform="translate(1384.331 64.755)" fill="none" stroke="#fff" stroke-width="6" opacity="0.05">
      <ellipse cx="21.276" cy="21.276" rx="21.276" ry="21.276" stroke="none"/>
      <ellipse cx="21.276" cy="21.276" rx="18.276" ry="18.276" fill="none"/>
    </g>
    <g id="Ellipse_24" data-name="Ellipse 24" transform="translate(4.331 164.755)" fill="none" stroke="#fff" stroke-width="7" opacity="0.05">
      <ellipse cx="28.776" cy="28.776" rx="28.776" ry="28.776" stroke="none"/>
      <ellipse cx="28.776" cy="28.776" rx="25.276" ry="25.276" fill="none"/>
    </g>
    <g id="Ellipse_20-2" data-name="Ellipse 20" transform="translate(770.331 157.755)" fill="none" stroke="#fff" stroke-width="6" opacity="0.05">
      <ellipse cx="21.276" cy="21.276" rx="21.276" ry="21.276" stroke="none"/>
      <ellipse cx="21.276" cy="21.276" rx="18.276" ry="18.276" fill="none"/>
    </g>
    <g id="Ellipse_21" data-name="Ellipse 21" transform="translate(1139.331 200.755)" fill="none" stroke="#fff" stroke-width="4" opacity="0.05">
      <ellipse cx="13.276" cy="13.276" rx="13.276" ry="13.276" stroke="none"/>
      <ellipse cx="13.276" cy="13.276" rx="11.276" ry="11.276" fill="none"/>
    </g>
    <g id="Ellipse_25" data-name="Ellipse 25" transform="translate(765.331 28.755)" fill="none" stroke="#fff" stroke-width="4" opacity="0.05">
      <ellipse cx="13.276" cy="13.276" rx="13.276" ry="13.276" stroke="none"/>
      <ellipse cx="13.276" cy="13.276" rx="11.276" ry="11.276" fill="none"/>
    </g>
    <g id="Ellipse_23" data-name="Ellipse 23" transform="translate(254.331 18.755)" fill="none" stroke="#fff" stroke-width="6" opacity="0.05">
      <ellipse cx="22.776" cy="22.776" rx="22.776" ry="22.776" stroke="none"/>
      <ellipse cx="22.776" cy="22.776" rx="19.776" ry="19.776" fill="none"/>
    </g>
    <path id="Tracé_53" data-name="Tracé 53" d="M26.4,0,41.338,39.1,0,31.626Z" transform="translate(1205.705 143.622) rotate(6)" fill="#fff" opacity="0.05"/>
    <path id="Tracé_56" data-name="Tracé 56" d="M26.4,0,41.338,39.1,0,31.626Z" transform="translate(1065.705 237.622) rotate(6)" fill="#fff" opacity="0.05"/>
    <path id="Tracé_54" data-name="Tracé 54" d="M26.426,0,41.384,39.14,0,31.661Z" transform="matrix(0.978, 0.208, -0.208, 0.978, 811.047, 74.779)" fill="#fff" opacity="0.05"/>
    <path id="Tracé_55" data-name="Tracé 55" d="M45.018,0,70.5,66.678,0,53.937Z" transform="matrix(0.978, 0.208, -0.208, 0.978, 229.047, 120.779)" fill="#fff" opacity="0.05"/>
  </g>
</svg>
