<svg id="undraw_Designer_by46" xmlns="http://www.w3.org/2000/svg" xmlns:xlink="http://www.w3.org/1999/xlink" width="540.809" height="368.542" viewBox="0 0 540.809 368.542">
  <defs>
    <linearGradient id="linear-gradient" x1="0.5" y1="1" x2="0.5" gradientUnits="objectBoundingBox">
      <stop offset="0" stop-color="gray" stop-opacity="0.251"/>
      <stop offset="0.535" stop-color="gray" stop-opacity="0.122"/>
      <stop offset="1" stop-color="gray" stop-opacity="0.102"/>
    </linearGradient>
  </defs>
  <path id="Tracé_74" data-name="Tracé 74" d="M144.808,365.651c-3.888,14.807-17.514,24.061-17.514,24.061s-7.321-14.754-3.433-29.561,17.513-24.061,17.513-24.061S148.7,350.844,144.808,365.651Z" transform="translate(-63.621 -66.248)" fill="#3f3d56"/>
  <path id="Tracé_75" data-name="Tracé 75" d="M138.91,362.519C128.019,373.279,126.8,389.7,126.8,389.7s16.439-1.02,27.329-11.779,12.109-27.185,12.109-27.185S149.8,351.759,138.91,362.519Z" transform="translate(-63.621 -66.248)" fill="#6c63ff"/>
  <rect id="Rectangle_406" data-name="Rectangle 406" width="59.521" height="25.328" rx="8.461" transform="translate(37.886 319.128)" fill="#6c63ff"/>
  <g id="Groupe_199" data-name="Groupe 199" opacity="0.7">
    <path id="Tracé_76" data-name="Tracé 76" d="M562.148,369.2v-9.126H516.517v42.21a8.9,8.9,0,0,0,8.9,8.9h27.836a8.9,8.9,0,0,0,8.9-8.9v-9.355a11.865,11.865,0,1,0,0-23.729Zm0,19.166v-14.6a7.3,7.3,0,0,1,0,14.6Z" transform="translate(-63.621 -66.248)" fill="url(#linear-gradient)"/>
  </g>
  <path id="Tracé_77" data-name="Tracé 77" d="M560.684,370.625a10.833,10.833,0,1,0,10.833,10.833,10.833,10.833,0,0,0-10.833-10.833Zm0,17.5a6.666,6.666,0,1,1,6.666-6.666,6.666,6.666,0,0,1-6.666,6.666Z" transform="translate(-63.621 -66.248)" fill="#6c63ff"/>
  <path id="Tracé_78" data-name="Tracé 78" d="M560.684,370.625a10.833,10.833,0,1,0,10.833,10.833,10.833,10.833,0,0,0-10.833-10.833Zm0,17.5a6.666,6.666,0,1,1,6.666-6.666,6.666,6.666,0,0,1-6.666,6.666Z" transform="translate(-63.621 -66.248)" opacity="0.1"/>
  <path id="Tracé_79" data-name="Tracé 79" d="M455.4,296.044h41.665v41.237a5.428,5.428,0,0,1-5.428,5.428H460.825a5.428,5.428,0,0,1-5.428-5.428Z" fill="#6c63ff"/>
  <rect id="Rectangle_407" data-name="Rectangle 407" width="540.809" height="18.333" transform="translate(0 342.709)" fill="#e0e0e0"/>
  <g id="Groupe_200" data-name="Groupe 200" opacity="0.7">
    <path id="Tracé_80" data-name="Tracé 80" d="M419.34,286.3c-5.8-21.039-38.657-36.4-63.382-39.809,0-.155.012-.309.012-.465v-18.01l.08-.027V227.3a61.761,61.761,0,0,0,37.306-39.1,66.734,66.734,0,0,0,3.98-8.582c2.639-.961,4.633-5.314,4.633-10.543a18.41,18.41,0,0,0-.745-5.286,67.636,67.636,0,0,0,.495-8.027,66.9,66.9,0,0,0-22.1-49.76,13.054,13.054,0,0,0,.209-3.272c-.559-8.644-9.792-14.517-18.445-14.909a18.26,18.26,0,0,0,3.079-19.283c-5.518,8.038-16.845,8.893-26.595,8.956a7.976,7.976,0,0,0,3.653-11.248c-10.19,13.658-30.054,16.187-42.174,28.166a35.554,35.554,0,0,0-6.558,8.944,66.939,66.939,0,0,0-25.23,52.406,67.671,67.671,0,0,0,.486,7.955,18.352,18.352,0,0,0-.768,5.358c0,5.254,2.012,9.62,4.67,10.554a66.734,66.734,0,0,0,4,8.61A61.748,61.748,0,0,0,312.989,227.2v18.818c0,.145.008.288.011.432-24.819,3.348-57.942,18.832-63.686,40.041-4.961,18.315-10.257,38.429-12.892,50.238C259.006,352.6,306.4,361.919,336.1,361.919c28.218,0,74.339-8.41,96.259-22.86C429.98,326.083,424.517,305.086,419.34,286.3Z" transform="translate(-63.621 -66.248)" fill="url(#linear-gradient)"/>
  </g>
  <path id="Tracé_81" data-name="Tracé 81" d="M336.035,356.7c27.221,0,71.712-8.113,92.857-22.053-2.29-12.517-7.56-32.772-12.554-50.9-6.36-23.085-46.5-39.09-70.446-39.09H322.818c-24.02,0-64.218,16.1-70.5,39.281-4.786,17.668-9.894,37.071-12.436,48.463C261.67,347.706,307.386,356.7,336.035,356.7Z" transform="translate(-63.621 -66.248)" fill="#6c63ff"/>
  <circle id="Ellipse_32" data-name="Ellipse 32" cx="64.71" cy="64.71" r="64.71" transform="translate(206.3 26.867)" fill="#72351c"/>
  <path id="Tracé_82" data-name="Tracé 82" d="M250.124,145.474h41.463v33.17a20.731,20.731,0,0,1-20.731,20.731h0a20.731,20.731,0,0,1-20.731-20.731v-33.17Z" opacity="0.1"/>
  <path id="Tracé_83" data-name="Tracé 83" d="M256.072,143.939H285.64a5.947,5.947,0,0,1,5.947,5.947v27.223a20.731,20.731,0,0,1-20.731,20.731h0a20.731,20.731,0,0,1-20.731-20.731V149.886A5.947,5.947,0,0,1,256.072,143.939Z" fill="#fda57d"/>
  <path id="Tracé_84" data-name="Tracé 84" d="M313.822,227.379a59.674,59.674,0,0,0,41.463.115V222.4H313.822Z" transform="translate(-63.621 -66.248)" opacity="0.1"/>
  <circle id="Ellipse_33" data-name="Ellipse 33" cx="59.43" cy="59.43" r="59.43" transform="translate(211.579 45.046)" fill="#fda57d"/>
  <path id="Tracé_85" data-name="Tracé 85" d="M292.3,116.667s25.046,50.84,95.7,21.308l-16.449-25.794L342.39,101.714Z" transform="translate(-63.621 -66.248)" opacity="0.1"/>
  <path id="Tracé_86" data-name="Tracé 86" d="M292.3,115.919s25.046,50.84,95.7,21.308l-16.448-25.794L342.39,100.966Z" transform="translate(-63.621 -66.248)" fill="#72351c"/>
  <path id="Tracé_87" data-name="Tracé 87" d="M292.076,112.484a34.332,34.332,0,0,1,8.51-13.841c11.692-11.555,30.854-14,40.684-27.171a7.694,7.694,0,0,1-3.524,10.851c9.405-.061,20.332-.885,25.655-8.64a17.615,17.615,0,0,1-2.971,18.6c8.347.379,17.254,6.044,17.794,14.383.359,5.555-3.124,10.815-7.689,14s-10.088,4.648-15.524,5.847C339.14,130.014,281.72,144.679,292.076,112.484Z" transform="translate(-63.621 -66.248)" fill="#72351c"/>
  <path id="Tracé_88" data-name="Tracé 88" d="M394.058,171.245h-1.576l-30.654,27.289c-29.532-13.831-51.214,0-51.214,0l-32.149-26.167-3.242.407a59.425,59.425,0,1,0,118.841-1.529ZM334.54,209c-11.562,0-20.934-2.343-20.934-5.234s9.373-5.234,20.934-5.234,20.934,2.343,20.934,5.234S346.1,209,334.54,209Z" transform="translate(-63.621 -66.248)" fill="#72351c"/>
  <ellipse id="Ellipse_34" data-name="Ellipse 34" cx="5.528" cy="10.366" rx="5.528" ry="10.366" transform="translate(206.027 94.054)" fill="#fda57d"/>
  <ellipse id="Ellipse_35" data-name="Ellipse 35" cx="5.528" cy="10.366" rx="5.528" ry="10.366" transform="translate(324.903 94.054)" fill="#fda57d"/>
  <g id="Groupe_201" data-name="Groupe 201" opacity="0.7">
    <rect id="Rectangle_408" data-name="Rectangle 408" width="229.99" height="132.438" rx="8.072" transform="translate(155.41 210.271)" fill="url(#linear-gradient)"/>
  </g>
  <rect id="Rectangle_409" data-name="Rectangle 409" width="221.657" height="129.994" rx="14.939" transform="translate(159.576 212.714)" fill="#535461"/>
  <circle id="Ellipse_36" data-name="Ellipse 36" cx="7.5" cy="7.5" r="7.5" transform="translate(262.905 270.212)" fill="#fff"/>
  <rect id="Rectangle_410" data-name="Rectangle 410" width="494.978" height="7.5" transform="translate(22.916 361.042)" fill="#e0e0e0"/>
  <rect id="Rectangle_411" data-name="Rectangle 411" width="494.978" height="2.5" transform="translate(22.916 361.042)" opacity="0.1"/>
  <path id="Tracé_89" data-name="Tracé 89" d="M553.182,362.293v38.54a8.125,8.125,0,0,1-8.125,8.125h4.166a8.125,8.125,0,0,0,8.125-8.125v-38.54Z" transform="translate(-63.621 -66.248)" opacity="0.1"/>
  <path id="Tracé_90" data-name="Tracé 90" d="M527.239,331.23a2.433,2.433,0,0,0-1.84.934c-.547.991.444,2.108,1.348,2.789a17.925,17.925,0,0,1,4.565,4.249c1.135,1.755,1.492,4.205.251,5.888-1.62,2.2-5.485,2.669-5.859,5.373-.24,1.736,1.26,3.217,2.781,4.088,3.753,2.15,8.591,2.723,11.31,6.087,1.125-2.312,3.64-3.649,6.147-4.22s5.112-.528,7.654-.915a2.647,2.647,0,0,0,2.112-1.12c.711-1.442-1.315-3.172-.616-4.62.532-1.1,2.095-1.016,3.236-1.458,1.858-.719,2.625-3.11,2.1-5.032a9.474,9.474,0,0,0-3.584-4.654c-4.222-3.318-9.3-5.269-14.434-6.672-2.388-.653-5.192-1.676-7.672-1.775C532.34,330.076,529.609,330.825,527.239,331.23Z" transform="translate(-63.621 -66.248)" fill="#eee"/>
</svg>
