<svg xmlns="http://www.w3.org/2000/svg" width="471" height="348.275" viewBox="0 0 471 348.275">
  <g id="undraw_innovative_b409" transform="translate(0 0)">
    <circle id="Ellipse_26" data-name="Ellipse 26" cx="64.857" cy="64.857" r="64.857" transform="translate(133.206 71.415)" fill="#6c63ff"/>
    <path id="Tracé_57" data-name="Tracé 57" d="M270.384,240.521a65.356,65.356,0,1,1,65.356-65.356A65.43,65.43,0,0,1,270.384,240.521Zm0-129.714a64.358,64.358,0,1,0,64.358,64.358,64.358,64.358,0,0,0-64.358-64.358Z" transform="translate(-63.84 -50.367)" fill="#3f3d56"/>
    <path id="Tracé_58" data-name="Tracé 58" d="M468.447,270.383H63.84V50.367H468.447Zm-403.61-1H467.449V51.365H64.837Z" transform="translate(-63.84 -50.367)" fill="#3f3d56"/>
    <rect id="Rectangle_401" data-name="Rectangle 401" width="88.804" height="8.98" transform="translate(13.47 17.461)" fill="#f2f2f2"/>
    <rect id="Rectangle_402" data-name="Rectangle 402" width="88.804" height="8.98" transform="translate(146.676 17.461)" fill="#f2f2f2"/>
    <rect id="Rectangle_403" data-name="Rectangle 403" width="88.804" height="8.98" transform="translate(279.883 17.461)" fill="#f2f2f2"/>
    <path id="Tracé_59" data-name="Tracé 59" d="M172.1,72.818H82.3V62.84h89.8Zm-88.8-1H171.1V63.838H83.3Z" transform="translate(-63.84 -50.367)" fill="#3f3d56"/>
    <path id="Tracé_60" data-name="Tracé 60" d="M305.307,72.818h-89.8V62.84h89.8Zm-88.8-1h87.806V63.838H216.5Z" transform="translate(-63.84 -50.367)" fill="#3f3d56"/>
    <path id="Tracé_61" data-name="Tracé 61" d="M438.513,72.818h-89.8V62.84h89.8Zm-88.8-1h87.806V63.838H349.709Z" transform="translate(-63.84 -50.367)" fill="#3f3d56"/>
    <rect id="Rectangle_404" data-name="Rectangle 404" width="412.891" height="1.274" transform="translate(58.109 340.618)" fill="#2f2e41"/>
    <path id="Tracé_62" data-name="Tracé 62" d="M196.317,241.218l31.431-60.866,8.481,4.989-35.921,58.371Z" fill="#3f3d56"/>
    <path id="Tracé_63" data-name="Tracé 63" d="M241.947,304.806s5.793,4.552,6.451-5.187a11.17,11.17,0,0,1,4.064-8.027c2.623-2.1,6.4-3.529,10.938-.755a9.419,9.419,0,0,1,4.728,9.242,14.2,14.2,0,0,1-7.1,11.1c-4.5,2.673-11.613,4.685-19.08-1.886C241.947,309.3,237.457,304.307,241.947,304.806Z" transform="translate(-63.84 -50.367)" fill="#6c63ff"/>
    <circle id="Ellipse_27" data-name="Ellipse 27" cx="12.106" cy="12.106" r="12.106" transform="translate(221.577 86.065)" fill="#ffb8b8"/>
    <path id="Tracé_64" data-name="Tracé 64" d="M291.151,154.273s3.186,16.567,1.912,19.753,17.841-1.274,17.841-1.274-3.823-16.567-3.186-20.39S291.151,154.273,291.151,154.273Z" transform="translate(-63.84 -50.367)" fill="#ffb8b8"/>
    <path id="Tracé_65" data-name="Tracé 65" d="M206.284,161.252l1.274,17.2,6.325,27.018,1.959,7.39,3.186-11.469-3.186-26.124-1.082-11.762Z" fill="#ffb8b8"/>
    <path id="Tracé_66" data-name="Tracé 66" d="M337.028,209.07v17.841s-1.912,22.938-5.735,28.673-5.1-22.938-5.1-22.938l3-21.027Z" transform="translate(-63.84 -50.367)" fill="#ffb8b8"/>
    <path id="Tracé_67" data-name="Tracé 67" d="M280.319,264.505s-3.186,3.823-.637,42.691-1.274,66.9,7.009,66.9c0,0-2.549,8.283,4.46,8.92s10.195,1.274,10.832-.637,1.912-10.832,0-10.832c0,0,0,2.549,1.274-7.646s1.274-58.62,4.46-64.992l10.195,23.576s0,10.832,1.912,15.929,5.1,34.408,5.1,34.408l-.637,4.46s15.292,2.549,15.929,0,.637-6.372,0-7.646-.637-1.274.637-3.823a7.716,7.716,0,0,0,.637-6.372c-.637-1.912-.637-43.328-.637-43.328s-1.274-50.337-8.92-52.886S280.319,264.505,280.319,264.505Z" transform="translate(-63.84 -50.367)" fill="#2f2e41"/>
    <path id="Tracé_68" data-name="Tracé 68" d="M288.6,377.923l-5.1,8.92s-7.965-2.867-6.372,4.46a127.329,127.329,0,0,0,23.257-.319s3.186,1.274,3.823-.637-1.593-8.6-3.5-8.6S288.6,377.923,288.6,377.923Z" transform="translate(-63.84 -50.367)" fill="#2f2e41"/>
    <path id="Tracé_69" data-name="Tracé 69" d="M325.558,375.374s-5.1,11.469-3.186,12.106,19.115,3.186,20.39,3.823,7.646,1.274,8.283-2.549-3.186-5.1-3.186-5.1-7.009-1.274-8.92-7.646S325.558,375.374,325.558,375.374Z" transform="translate(-63.84 -50.367)" fill="#2f2e41"/>
    <path id="Tracé_70" data-name="Tracé 70" d="M312.178,170.84s-17.2-3.186-21.027,0S271.4,180.4,271.4,183.584s8.283,34.408,8.283,34.408-4.46,47.151,0,48.426,12.106-2.549,21.027,1.912,34.408-3.823,34.408-3.823-9.558-40.779-7.009-48.426,4.46-33.77,4.46-33.77S321.735,170.84,312.178,170.84Z" transform="translate(-63.84 -50.367)" fill="#8985a8"/>
    <path id="Tracé_71" data-name="Tracé 71" d="M275.858,181.672l-4.46,1.274s-9.558,29.947-5.735,31.222,14.655,3.823,15.929,3.823S275.858,181.672,275.858,181.672Z" transform="translate(-63.84 -50.367)" fill="#8985a8"/>
    <path id="Tracé_72" data-name="Tracé 72" d="M322.372,178.486l10.195,3.823s13.381,24.85,10.195,28.036-17.2,6.372-17.2,6.372Z" transform="translate(-63.84 -50.367)" fill="#8985a8"/>
    <path id="Tracé_73" data-name="Tracé 73" d="M297.155,133.585a6.843,6.843,0,0,0-3.028.134,7.9,7.9,0,0,0-2.152,1.412,25.189,25.189,0,0,1-3.68,2.438,8.587,8.587,0,0,0-2.863,2.007,6.093,6.093,0,0,0-.808,1.53,18.33,18.33,0,0,0-.964,9.976,4.585,4.585,0,0,0,.424,1.37c.662,1.22,2.125,1.7,3.357,2.341,2.339,1.214,4.113,3.259,6.031,5.066a11.792,11.792,0,0,0,2.383,1.837c2.737,1.492,6.083,1.006,9.156.478a1.65,1.65,0,0,0,1.647-1.666l2.425-10.909a17.8,17.8,0,0,0,.622-4.961,14.119,14.119,0,0,0-3.546-8.2C303.894,134.247,300.115,133.9,297.155,133.585Z" transform="translate(-63.84 -50.367)" fill="#2f2e41"/>
    <ellipse id="Ellipse_28" data-name="Ellipse 28" cx="17.461" cy="0.998" rx="17.461" ry="0.998" transform="translate(166.134 338.753)" fill="#6c63ff"/>
    <ellipse id="Ellipse_29" data-name="Ellipse 29" cx="17.461" cy="0.998" rx="17.461" ry="0.998" transform="translate(162.142 340.748)" fill="#6c63ff"/>
    <ellipse id="Ellipse_30" data-name="Ellipse 30" cx="9.479" cy="0.542" rx="9.479" ry="0.542" transform="translate(152.663 335.218)" fill="#6c63ff"/>
    <ellipse id="Ellipse_31" data-name="Ellipse 31" cx="9.479" cy="0.542" rx="9.479" ry="0.542" transform="translate(186.588 347.191)" fill="#6c63ff"/>
  </g>
</svg>
